<svg version="1.0" xmlns="http://www.w3.org/2000/svg" xmlns:xlink="http://www.w3.org/1999/xlink"
	 viewBox="0 0 100 100" enable-background="new 0 0 100 100" xml:space="preserve">
	
<svg xmlns="http://www.w3.org/2000/svg" xmlns:xlink="http://www.w3.org/1999/xlink" version="1.1" width="100" height="100" viewBox="0 0 2000 2000" x="0" y="0" shape-rendering="crispEdges"><defs/><rect x="0" y="0" width="2000" height="2000" fill="#ffffff"/><rect x="719" y="158" width="51" height="51" fill="#000000"/><rect x="770" y="158" width="51" height="51" fill="#000000"/><rect x="821" y="158" width="51" height="51" fill="#000000"/><rect x="923" y="158" width="51" height="51" fill="#000000"/><rect x="974" y="158" width="51" height="51" fill="#000000"/><rect x="1178" y="158" width="51" height="51" fill="#000000"/><rect x="1229" y="158" width="51" height="51" fill="#000000"/><rect x="1280" y="158" width="51" height="51" fill="#000000"/><rect x="1331" y="158" width="51" height="51" fill="#000000"/><rect x="1382" y="158" width="51" height="51" fill="#000000"/><rect x="617" y="209" width="51" height="51" fill="#000000"/><rect x="668" y="209" width="51" height="51" fill="#000000"/><rect x="770" y="209" width="51" height="51" fill="#000000"/><rect x="821" y="209" width="51" height="51" fill="#000000"/><rect x="872" y="209" width="51" height="51" fill="#000000"/><rect x="974" y="209" width="51" height="51" fill="#000000"/><rect x="1025" y="209" width="51" height="51" fill="#000000"/><rect x="1076" y="209" width="51" height="51" fill="#000000"/><rect x="1178" y="209" width="51" height="51" fill="#000000"/><rect x="1229" y="209" width="51" height="51" fill="#000000"/><rect x="1280" y="209" width="51" height="51" fill="#000000"/><rect x="1331" y="209" width="51" height="51" fill="#000000"/><rect x="1382" y="209" width="51" height="51" fill="#000000"/><rect x="617" y="260" width="51" height="51" fill="#000000"/><rect x="719" y="260" width="51" height="51" fill="#000000"/><rect x="770" y="260" width="51" height="51" fill="#000000"/><rect x="821" y="260" width="51" height="51" fill="#000000"/><rect x="872" y="260" width="51" height="51" fill="#000000"/><rect x="974" y="260" width="51" height="51" fill="#000000"/><rect x="1025" y="260" width="51" height="51" fill="#000000"/><rect x="1076" y="260" width="51" height="51" fill="#000000"/><rect x="1280" y="260" width="51" height="51" fill="#000000"/><rect x="1331" y="260" width="51" height="51" fill="#000000"/><rect x="1382" y="260" width="51" height="51" fill="#000000"/><rect x="617" y="311" width="51" height="51" fill="#000000"/><rect x="668" y="311" width="51" height="51" fill="#000000"/><rect x="719" y="311" width="51" height="51" fill="#000000"/><rect x="923" y="311" width="51" height="51" fill="#000000"/><rect x="974" y="311" width="51" height="51" fill="#000000"/><rect x="1127" y="311" width="51" height="51" fill="#000000"/><rect x="1229" y="311" width="51" height="51" fill="#000000"/><rect x="1280" y="311" width="51" height="51" fill="#000000"/><rect x="1382" y="311" width="51" height="51" fill="#000000"/><rect x="566" y="362" width="51" height="51" fill="#000000"/><rect x="668" y="362" width="51" height="51" fill="#000000"/><rect x="974" y="362" width="51" height="51" fill="#000000"/><rect x="1076" y="362" width="51" height="51" fill="#000000"/><rect x="1127" y="362" width="51" height="51" fill="#000000"/><rect x="1331" y="362" width="51" height="51" fill="#000000"/><rect x="1382" y="362" width="51" height="51" fill="#000000"/><rect x="617" y="413" width="51" height="51" fill="#000000"/><rect x="668" y="413" width="51" height="51" fill="#000000"/><rect x="770" y="413" width="51" height="51" fill="#000000"/><rect x="821" y="413" width="51" height="51" fill="#000000"/><rect x="923" y="413" width="51" height="51" fill="#000000"/><rect x="974" y="413" width="51" height="51" fill="#000000"/><rect x="1025" y="413" width="51" height="51" fill="#000000"/><rect x="1229" y="413" width="51" height="51" fill="#000000"/><rect x="1331" y="413" width="51" height="51" fill="#000000"/><rect x="566" y="464" width="51" height="51" fill="#000000"/><rect x="668" y="464" width="51" height="51" fill="#000000"/><rect x="770" y="464" width="51" height="51" fill="#000000"/><rect x="872" y="464" width="51" height="51" fill="#000000"/><rect x="974" y="464" width="51" height="51" fill="#000000"/><rect x="1076" y="464" width="51" height="51" fill="#000000"/><rect x="1178" y="464" width="51" height="51" fill="#000000"/><rect x="1280" y="464" width="51" height="51" fill="#000000"/><rect x="1382" y="464" width="51" height="51" fill="#000000"/><rect x="566" y="515" width="51" height="51" fill="#000000"/><rect x="668" y="515" width="51" height="51" fill="#000000"/><rect x="719" y="515" width="51" height="51" fill="#000000"/><rect x="770" y="515" width="51" height="51" fill="#000000"/><rect x="821" y="515" width="51" height="51" fill="#000000"/><rect x="872" y="515" width="51" height="51" fill="#000000"/><rect x="923" y="515" width="51" height="51" fill="#000000"/><rect x="974" y="515" width="51" height="51" fill="#000000"/><rect x="1025" y="515" width="51" height="51" fill="#000000"/><rect x="1076" y="515" width="51" height="51" fill="#000000"/><rect x="1382" y="515" width="51" height="51" fill="#000000"/><rect x="260" y="566" width="51" height="51" fill="#000000"/><rect x="311" y="566" width="51" height="51" fill="#000000"/><rect x="464" y="566" width="51" height="51" fill="#000000"/><rect x="515" y="566" width="51" height="51" fill="#000000"/><rect x="566" y="566" width="51" height="51" fill="#000000"/><rect x="617" y="566" width="51" height="51" fill="#000000"/><rect x="821" y="566" width="51" height="51" fill="#000000"/><rect x="974" y="566" width="51" height="51" fill="#000000"/><rect x="1076" y="566" width="51" height="51" fill="#000000"/><rect x="1280" y="566" width="51" height="51" fill="#000000"/><rect x="1331" y="566" width="51" height="51" fill="#000000"/><rect x="1382" y="566" width="51" height="51" fill="#000000"/><rect x="1433" y="566" width="51" height="51" fill="#000000"/><rect x="1484" y="566" width="51" height="51" fill="#000000"/><rect x="1586" y="566" width="51" height="51" fill="#000000"/><rect x="158" y="617" width="51" height="51" fill="#000000"/><rect x="209" y="617" width="51" height="51" fill="#000000"/><rect x="260" y="617" width="51" height="51" fill="#000000"/><rect x="413" y="617" width="51" height="51" fill="#000000"/><rect x="821" y="617" width="51" height="51" fill="#000000"/><rect x="872" y="617" width="51" height="51" fill="#000000"/><rect x="923" y="617" width="51" height="51" fill="#000000"/><rect x="974" y="617" width="51" height="51" fill="#000000"/><rect x="1025" y="617" width="51" height="51" fill="#000000"/><rect x="1127" y="617" width="51" height="51" fill="#000000"/><rect x="1229" y="617" width="51" height="51" fill="#000000"/><rect x="1280" y="617" width="51" height="51" fill="#000000"/><rect x="1382" y="617" width="51" height="51" fill="#000000"/><rect x="1637" y="617" width="51" height="51" fill="#000000"/><rect x="1688" y="617" width="51" height="51" fill="#000000"/><rect x="1739" y="617" width="51" height="51" fill="#000000"/><rect x="1790" y="617" width="51" height="51" fill="#000000"/><rect x="158" y="668" width="51" height="51" fill="#000000"/><rect x="209" y="668" width="51" height="51" fill="#000000"/><rect x="311" y="668" width="51" height="51" fill="#000000"/><rect x="362" y="668" width="51" height="51" fill="#000000"/><rect x="464" y="668" width="51" height="51" fill="#000000"/><rect x="515" y="668" width="51" height="51" fill="#000000"/><rect x="617" y="668" width="51" height="51" fill="#000000"/><rect x="1433" y="668" width="51" height="51" fill="#000000"/><rect x="1484" y="668" width="51" height="51" fill="#000000"/><rect x="1535" y="668" width="51" height="51" fill="#000000"/><rect x="1586" y="668" width="51" height="51" fill="#000000"/><rect x="1637" y="668" width="51" height="51" fill="#000000"/><rect x="1688" y="668" width="51" height="51" fill="#000000"/><rect x="1739" y="668" width="51" height="51" fill="#000000"/><rect x="158" y="719" width="51" height="51" fill="#000000"/><rect x="260" y="719" width="51" height="51" fill="#000000"/><rect x="311" y="719" width="51" height="51" fill="#000000"/><rect x="1331" y="719" width="51" height="51" fill="#000000"/><rect x="1382" y="719" width="51" height="51" fill="#000000"/><rect x="1433" y="719" width="51" height="51" fill="#000000"/><rect x="1484" y="719" width="51" height="51" fill="#000000"/><rect x="1535" y="719" width="51" height="51" fill="#000000"/><rect x="1586" y="719" width="51" height="51" fill="#000000"/><rect x="1739" y="719" width="51" height="51" fill="#000000"/><rect x="1790" y="719" width="51" height="51" fill="#000000"/><rect x="209" y="770" width="51" height="51" fill="#000000"/><rect x="260" y="770" width="51" height="51" fill="#000000"/><rect x="311" y="770" width="51" height="51" fill="#000000"/><rect x="464" y="770" width="51" height="51" fill="#000000"/><rect x="1382" y="770" width="51" height="51" fill="#000000"/><rect x="1637" y="770" width="51" height="51" fill="#000000"/><rect x="209" y="821" width="51" height="51" fill="#000000"/><rect x="362" y="821" width="51" height="51" fill="#000000"/><rect x="413" y="821" width="51" height="51" fill="#000000"/><rect x="515" y="821" width="51" height="51" fill="#000000"/><rect x="566" y="821" width="51" height="51" fill="#000000"/><rect x="1382" y="821" width="51" height="51" fill="#000000"/><rect x="1433" y="821" width="51" height="51" fill="#000000"/><rect x="1637" y="821" width="51" height="51" fill="#000000"/><rect x="1790" y="821" width="51" height="51" fill="#000000"/><rect x="158" y="872" width="51" height="51" fill="#000000"/><rect x="209" y="872" width="51" height="51" fill="#000000"/><rect x="260" y="872" width="51" height="51" fill="#000000"/><rect x="311" y="872" width="51" height="51" fill="#000000"/><rect x="413" y="872" width="51" height="51" fill="#000000"/><rect x="464" y="872" width="51" height="51" fill="#000000"/><rect x="515" y="872" width="51" height="51" fill="#000000"/><rect x="566" y="872" width="51" height="51" fill="#000000"/><rect x="617" y="872" width="51" height="51" fill="#000000"/><rect x="1331" y="872" width="51" height="51" fill="#000000"/><rect x="1535" y="872" width="51" height="51" fill="#000000"/><rect x="1586" y="872" width="51" height="51" fill="#000000"/><rect x="158" y="923" width="51" height="51" fill="#000000"/><rect x="617" y="923" width="51" height="51" fill="#000000"/><rect x="1331" y="923" width="51" height="51" fill="#000000"/><rect x="1382" y="923" width="51" height="51" fill="#000000"/><rect x="1484" y="923" width="51" height="51" fill="#000000"/><rect x="1535" y="923" width="51" height="51" fill="#000000"/><rect x="1688" y="923" width="51" height="51" fill="#000000"/><rect x="1790" y="923" width="51" height="51" fill="#000000"/><rect x="260" y="974" width="51" height="51" fill="#000000"/><rect x="311" y="974" width="51" height="51" fill="#000000"/><rect x="362" y="974" width="51" height="51" fill="#000000"/><rect x="464" y="974" width="51" height="51" fill="#000000"/><rect x="515" y="974" width="51" height="51" fill="#000000"/><rect x="617" y="974" width="51" height="51" fill="#000000"/><rect x="1331" y="974" width="51" height="51" fill="#000000"/><rect x="1433" y="974" width="51" height="51" fill="#000000"/><rect x="1535" y="974" width="51" height="51" fill="#000000"/><rect x="1586" y="974" width="51" height="51" fill="#000000"/><rect x="1637" y="974" width="51" height="51" fill="#000000"/><rect x="209" y="1025" width="51" height="51" fill="#000000"/><rect x="260" y="1025" width="51" height="51" fill="#000000"/><rect x="311" y="1025" width="51" height="51" fill="#000000"/><rect x="362" y="1025" width="51" height="51" fill="#000000"/><rect x="566" y="1025" width="51" height="51" fill="#000000"/><rect x="1484" y="1025" width="51" height="51" fill="#000000"/><rect x="1586" y="1025" width="51" height="51" fill="#000000"/><rect x="158" y="1076" width="51" height="51" fill="#000000"/><rect x="209" y="1076" width="51" height="51" fill="#000000"/><rect x="311" y="1076" width="51" height="51" fill="#000000"/><rect x="464" y="1076" width="51" height="51" fill="#000000"/><rect x="566" y="1076" width="51" height="51" fill="#000000"/><rect x="617" y="1076" width="51" height="51" fill="#000000"/><rect x="1433" y="1076" width="51" height="51" fill="#000000"/><rect x="1484" y="1076" width="51" height="51" fill="#000000"/><rect x="1586" y="1076" width="51" height="51" fill="#000000"/><rect x="1637" y="1076" width="51" height="51" fill="#000000"/><rect x="1688" y="1076" width="51" height="51" fill="#000000"/><rect x="1739" y="1076" width="51" height="51" fill="#000000"/><rect x="158" y="1127" width="51" height="51" fill="#000000"/><rect x="260" y="1127" width="51" height="51" fill="#000000"/><rect x="362" y="1127" width="51" height="51" fill="#000000"/><rect x="413" y="1127" width="51" height="51" fill="#000000"/><rect x="617" y="1127" width="51" height="51" fill="#000000"/><rect x="1382" y="1127" width="51" height="51" fill="#000000"/><rect x="1535" y="1127" width="51" height="51" fill="#000000"/><rect x="1637" y="1127" width="51" height="51" fill="#000000"/><rect x="1688" y="1127" width="51" height="51" fill="#000000"/><rect x="209" y="1178" width="51" height="51" fill="#000000"/><rect x="260" y="1178" width="51" height="51" fill="#000000"/><rect x="362" y="1178" width="51" height="51" fill="#000000"/><rect x="413" y="1178" width="51" height="51" fill="#000000"/><rect x="464" y="1178" width="51" height="51" fill="#000000"/><rect x="515" y="1178" width="51" height="51" fill="#000000"/><rect x="617" y="1178" width="51" height="51" fill="#000000"/><rect x="1382" y="1178" width="51" height="51" fill="#000000"/><rect x="1484" y="1178" width="51" height="51" fill="#000000"/><rect x="1637" y="1178" width="51" height="51" fill="#000000"/><rect x="158" y="1229" width="51" height="51" fill="#000000"/><rect x="260" y="1229" width="51" height="51" fill="#000000"/><rect x="413" y="1229" width="51" height="51" fill="#000000"/><rect x="515" y="1229" width="51" height="51" fill="#000000"/><rect x="566" y="1229" width="51" height="51" fill="#000000"/><rect x="617" y="1229" width="51" height="51" fill="#000000"/><rect x="1382" y="1229" width="51" height="51" fill="#000000"/><rect x="1535" y="1229" width="51" height="51" fill="#000000"/><rect x="1637" y="1229" width="51" height="51" fill="#000000"/><rect x="1688" y="1229" width="51" height="51" fill="#000000"/><rect x="1739" y="1229" width="51" height="51" fill="#000000"/><rect x="1790" y="1229" width="51" height="51" fill="#000000"/><rect x="260" y="1280" width="51" height="51" fill="#000000"/><rect x="362" y="1280" width="51" height="51" fill="#000000"/><rect x="464" y="1280" width="51" height="51" fill="#000000"/><rect x="515" y="1280" width="51" height="51" fill="#000000"/><rect x="566" y="1280" width="51" height="51" fill="#000000"/><rect x="1331" y="1280" width="51" height="51" fill="#000000"/><rect x="1382" y="1280" width="51" height="51" fill="#000000"/><rect x="1433" y="1280" width="51" height="51" fill="#000000"/><rect x="1484" y="1280" width="51" height="51" fill="#000000"/><rect x="1535" y="1280" width="51" height="51" fill="#000000"/><rect x="1586" y="1280" width="51" height="51" fill="#000000"/><rect x="1688" y="1280" width="51" height="51" fill="#000000"/><rect x="1739" y="1280" width="51" height="51" fill="#000000"/><rect x="209" y="1331" width="51" height="51" fill="#000000"/><rect x="260" y="1331" width="51" height="51" fill="#000000"/><rect x="311" y="1331" width="51" height="51" fill="#000000"/><rect x="413" y="1331" width="51" height="51" fill="#000000"/><rect x="668" y="1331" width="51" height="51" fill="#000000"/><rect x="719" y="1331" width="51" height="51" fill="#000000"/><rect x="872" y="1331" width="51" height="51" fill="#000000"/><rect x="1025" y="1331" width="51" height="51" fill="#000000"/><rect x="1076" y="1331" width="51" height="51" fill="#000000"/><rect x="1127" y="1331" width="51" height="51" fill="#000000"/><rect x="1229" y="1331" width="51" height="51" fill="#000000"/><rect x="1280" y="1331" width="51" height="51" fill="#000000"/><rect x="1484" y="1331" width="51" height="51" fill="#000000"/><rect x="1535" y="1331" width="51" height="51" fill="#000000"/><rect x="1586" y="1331" width="51" height="51" fill="#000000"/><rect x="1739" y="1331" width="51" height="51" fill="#000000"/><rect x="1790" y="1331" width="51" height="51" fill="#000000"/><rect x="158" y="1382" width="51" height="51" fill="#000000"/><rect x="413" y="1382" width="51" height="51" fill="#000000"/><rect x="464" y="1382" width="51" height="51" fill="#000000"/><rect x="566" y="1382" width="51" height="51" fill="#000000"/><rect x="617" y="1382" width="51" height="51" fill="#000000"/><rect x="719" y="1382" width="51" height="51" fill="#000000"/><rect x="770" y="1382" width="51" height="51" fill="#000000"/><rect x="821" y="1382" width="51" height="51" fill="#000000"/><rect x="923" y="1382" width="51" height="51" fill="#000000"/><rect x="1280" y="1382" width="51" height="51" fill="#000000"/><rect x="1382" y="1382" width="51" height="51" fill="#000000"/><rect x="1433" y="1382" width="51" height="51" fill="#000000"/><rect x="1484" y="1382" width="51" height="51" fill="#000000"/><rect x="1535" y="1382" width="51" height="51" fill="#000000"/><rect x="1586" y="1382" width="51" height="51" fill="#000000"/><rect x="1637" y="1382" width="51" height="51" fill="#000000"/><rect x="1688" y="1382" width="51" height="51" fill="#000000"/><rect x="566" y="1433" width="51" height="51" fill="#000000"/><rect x="668" y="1433" width="51" height="51" fill="#000000"/><rect x="1025" y="1433" width="51" height="51" fill="#000000"/><rect x="1229" y="1433" width="51" height="51" fill="#000000"/><rect x="1331" y="1433" width="51" height="51" fill="#000000"/><rect x="1382" y="1433" width="51" height="51" fill="#000000"/><rect x="1586" y="1433" width="51" height="51" fill="#000000"/><rect x="1739" y="1433" width="51" height="51" fill="#000000"/><rect x="566" y="1484" width="51" height="51" fill="#000000"/><rect x="617" y="1484" width="51" height="51" fill="#000000"/><rect x="668" y="1484" width="51" height="51" fill="#000000"/><rect x="821" y="1484" width="51" height="51" fill="#000000"/><rect x="872" y="1484" width="51" height="51" fill="#000000"/><rect x="923" y="1484" width="51" height="51" fill="#000000"/><rect x="974" y="1484" width="51" height="51" fill="#000000"/><rect x="1076" y="1484" width="51" height="51" fill="#000000"/><rect x="1229" y="1484" width="51" height="51" fill="#000000"/><rect x="1331" y="1484" width="51" height="51" fill="#000000"/><rect x="1382" y="1484" width="51" height="51" fill="#000000"/><rect x="1484" y="1484" width="51" height="51" fill="#000000"/><rect x="1586" y="1484" width="51" height="51" fill="#000000"/><rect x="1637" y="1484" width="51" height="51" fill="#000000"/><rect x="1688" y="1484" width="51" height="51" fill="#000000"/><rect x="1790" y="1484" width="51" height="51" fill="#000000"/><rect x="617" y="1535" width="51" height="51" fill="#000000"/><rect x="668" y="1535" width="51" height="51" fill="#000000"/><rect x="719" y="1535" width="51" height="51" fill="#000000"/><rect x="821" y="1535" width="51" height="51" fill="#000000"/><rect x="923" y="1535" width="51" height="51" fill="#000000"/><rect x="974" y="1535" width="51" height="51" fill="#000000"/><rect x="1025" y="1535" width="51" height="51" fill="#000000"/><rect x="1076" y="1535" width="51" height="51" fill="#000000"/><rect x="1178" y="1535" width="51" height="51" fill="#000000"/><rect x="1331" y="1535" width="51" height="51" fill="#000000"/><rect x="1382" y="1535" width="51" height="51" fill="#000000"/><rect x="1586" y="1535" width="51" height="51" fill="#000000"/><rect x="1637" y="1535" width="51" height="51" fill="#000000"/><rect x="1688" y="1535" width="51" height="51" fill="#000000"/><rect x="1790" y="1535" width="51" height="51" fill="#000000"/><rect x="719" y="1586" width="51" height="51" fill="#000000"/><rect x="770" y="1586" width="51" height="51" fill="#000000"/><rect x="872" y="1586" width="51" height="51" fill="#000000"/><rect x="1280" y="1586" width="51" height="51" fill="#000000"/><rect x="1331" y="1586" width="51" height="51" fill="#000000"/><rect x="1382" y="1586" width="51" height="51" fill="#000000"/><rect x="1433" y="1586" width="51" height="51" fill="#000000"/><rect x="1484" y="1586" width="51" height="51" fill="#000000"/><rect x="1535" y="1586" width="51" height="51" fill="#000000"/><rect x="1586" y="1586" width="51" height="51" fill="#000000"/><rect x="1637" y="1586" width="51" height="51" fill="#000000"/><rect x="1688" y="1586" width="51" height="51" fill="#000000"/><rect x="1790" y="1586" width="51" height="51" fill="#000000"/><rect x="566" y="1637" width="51" height="51" fill="#000000"/><rect x="617" y="1637" width="51" height="51" fill="#000000"/><rect x="770" y="1637" width="51" height="51" fill="#000000"/><rect x="821" y="1637" width="51" height="51" fill="#000000"/><rect x="923" y="1637" width="51" height="51" fill="#000000"/><rect x="974" y="1637" width="51" height="51" fill="#000000"/><rect x="1076" y="1637" width="51" height="51" fill="#000000"/><rect x="1127" y="1637" width="51" height="51" fill="#000000"/><rect x="1178" y="1637" width="51" height="51" fill="#000000"/><rect x="1280" y="1637" width="51" height="51" fill="#000000"/><rect x="1382" y="1637" width="51" height="51" fill="#000000"/><rect x="1586" y="1637" width="51" height="51" fill="#000000"/><rect x="1637" y="1637" width="51" height="51" fill="#000000"/><rect x="1688" y="1637" width="51" height="51" fill="#000000"/><rect x="566" y="1688" width="51" height="51" fill="#000000"/><rect x="617" y="1688" width="51" height="51" fill="#000000"/><rect x="668" y="1688" width="51" height="51" fill="#000000"/><rect x="821" y="1688" width="51" height="51" fill="#000000"/><rect x="872" y="1688" width="51" height="51" fill="#000000"/><rect x="923" y="1688" width="51" height="51" fill="#000000"/><rect x="974" y="1688" width="51" height="51" fill="#000000"/><rect x="1076" y="1688" width="51" height="51" fill="#000000"/><rect x="1280" y="1688" width="51" height="51" fill="#000000"/><rect x="1331" y="1688" width="51" height="51" fill="#000000"/><rect x="1382" y="1688" width="51" height="51" fill="#000000"/><rect x="1535" y="1688" width="51" height="51" fill="#000000"/><rect x="1586" y="1688" width="51" height="51" fill="#000000"/><rect x="617" y="1739" width="51" height="51" fill="#000000"/><rect x="668" y="1739" width="51" height="51" fill="#000000"/><rect x="872" y="1739" width="51" height="51" fill="#000000"/><rect x="974" y="1739" width="51" height="51" fill="#000000"/><rect x="1025" y="1739" width="51" height="51" fill="#000000"/><rect x="1076" y="1739" width="51" height="51" fill="#000000"/><rect x="1127" y="1739" width="51" height="51" fill="#000000"/><rect x="1178" y="1739" width="51" height="51" fill="#000000"/><rect x="1229" y="1739" width="51" height="51" fill="#000000"/><rect x="1280" y="1739" width="51" height="51" fill="#000000"/><rect x="1382" y="1739" width="51" height="51" fill="#000000"/><rect x="1433" y="1739" width="51" height="51" fill="#000000"/><rect x="1484" y="1739" width="51" height="51" fill="#000000"/><rect x="1586" y="1739" width="51" height="51" fill="#000000"/><rect x="1688" y="1739" width="51" height="51" fill="#000000"/><rect x="1739" y="1739" width="51" height="51" fill="#000000"/><rect x="617" y="1790" width="51" height="51" fill="#000000"/><rect x="668" y="1790" width="51" height="51" fill="#000000"/><rect x="719" y="1790" width="51" height="51" fill="#000000"/><rect x="770" y="1790" width="51" height="51" fill="#000000"/><rect x="821" y="1790" width="51" height="51" fill="#000000"/><rect x="872" y="1790" width="51" height="51" fill="#000000"/><rect x="974" y="1790" width="51" height="51" fill="#000000"/><rect x="1025" y="1790" width="51" height="51" fill="#000000"/><rect x="1076" y="1790" width="51" height="51" fill="#000000"/><rect x="1178" y="1790" width="51" height="51" fill="#000000"/><rect x="1229" y="1790" width="51" height="51" fill="#000000"/><rect x="1331" y="1790" width="51" height="51" fill="#000000"/><rect x="1382" y="1790" width="51" height="51" fill="#000000"/><rect x="1433" y="1790" width="51" height="51" fill="#000000"/><rect x="1484" y="1790" width="51" height="51" fill="#000000"/><rect x="1535" y="1790" width="51" height="51" fill="#000000"/><rect x="1586" y="1790" width="51" height="51" fill="#000000"/><svg version="1.1" id="Ebene_1" x="158" y="158" viewBox="0 0 700 700" style="enable-background:new 0 0 700 700;" xml:space="preserve" width="357" height="357" shape-rendering="auto">

<path fill="#000000" d="M21.2-0.1C9.5-0.1-0.1,9.5-0.1,21.2v78.8v100v100v100v100v100v78.8c0,11.7,9.5,21.3,21.3,21.3h657.6  c11.7,0,21.3-9.5,21.3-21.3V600V500V400V300V200v-100V21.2c0-11.7-9.5-21.3-21.3-21.3H21.2z M600,200v100v100v100v87.8  c0,6.8-5.5,12.2-12.2,12.2H112.2c-6.8,0-12.2-5.5-12.2-12.2V500V400V300V200v-87.8c0-6.8,5.5-12.2,12.2-12.2h475.6  c6.8,0,12.2,5.5,12.2,12.2V200z"/>
</svg>
<svg version="1.1" id="Ebene_1" x="158" y="158" viewBox="0 0 700 700" style="enable-background:new 0 0 700 700;" xml:space="preserve" width="357" height="357" shape-rendering="auto">

<path fill="#000000" d="M500,400V300v-78.8c0-11.7-9.5-21.3-21.3-21.3H221.2c-11.7,0-21.3,9.5-21.3,21.3V300v100v78.8    c0,11.7,9.5,21.3,21.3,21.3h257.5c11.7,0,21.3-9.5,21.3-21.3V400z"/>
</svg>
<svg version="1.1" id="Ebene_1" x="1484" y="158" viewBox="0 0 700 700" style="enable-background:new 0 0 700 700;" xml:space="preserve" width="357" height="357" shape-rendering="auto">

<path fill="#000000" d="M21.2-0.1C9.5-0.1-0.1,9.5-0.1,21.2v78.8v100v100v100v100v100v78.8c0,11.7,9.5,21.3,21.3,21.3h657.6  c11.7,0,21.3-9.5,21.3-21.3V600V500V400V300V200v-100V21.2c0-11.7-9.5-21.3-21.3-21.3H21.2z M600,200v100v100v100v87.8  c0,6.8-5.5,12.2-12.2,12.2H112.2c-6.8,0-12.2-5.5-12.2-12.2V500V400V300V200v-87.8c0-6.8,5.5-12.2,12.2-12.2h475.6  c6.8,0,12.2,5.5,12.2,12.2V200z"/>
</svg>
<svg version="1.1" id="Ebene_1" x="1484" y="158" viewBox="0 0 700 700" style="enable-background:new 0 0 700 700;" xml:space="preserve" width="357" height="357" shape-rendering="auto">

<path fill="#000000" d="M500,400V300v-78.8c0-11.7-9.5-21.3-21.3-21.3H221.2c-11.7,0-21.3,9.5-21.3,21.3V300v100v78.8    c0,11.7,9.5,21.3,21.3,21.3h257.5c11.7,0,21.3-9.5,21.3-21.3V400z"/>
</svg>
<svg version="1.1" id="Ebene_1" x="158" y="1484" viewBox="0 0 700 700" style="enable-background:new 0 0 700 700;" xml:space="preserve" width="357" height="357" shape-rendering="auto">

<path fill="#000000" d="M21.2-0.1C9.5-0.1-0.1,9.5-0.1,21.2v78.8v100v100v100v100v100v78.8c0,11.7,9.5,21.3,21.3,21.3h657.6  c11.7,0,21.3-9.5,21.3-21.3V600V500V400V300V200v-100V21.2c0-11.7-9.5-21.3-21.3-21.3H21.2z M600,200v100v100v100v87.8  c0,6.8-5.5,12.2-12.2,12.2H112.2c-6.8,0-12.2-5.5-12.2-12.2V500V400V300V200v-87.8c0-6.8,5.5-12.2,12.2-12.2h475.6  c6.8,0,12.2,5.5,12.2,12.2V200z"/>
</svg>
<svg version="1.1" id="Ebene_1" x="158" y="1484" viewBox="0 0 700 700" style="enable-background:new 0 0 700 700;" xml:space="preserve" width="357" height="357" shape-rendering="auto">

<path fill="#000000" d="M500,400V300v-78.8c0-11.7-9.5-21.3-21.3-21.3H221.2c-11.7,0-21.3,9.5-21.3,21.3V300v100v78.8    c0,11.7,9.5,21.3,21.3,21.3h257.5c11.7,0,21.3-9.5,21.3-21.3V400z"/>
</svg>
<svg version="1.0" id="Layer_1" x="693" y="693" viewBox="0 0 700 700" enable-background="new 0 0 700 700" xml:space="preserve" width="612" height="612" shape-rendering="auto">
<g>
	<g>
		<g>
			<path fill="#000000" d="M172.3,220.5c0-5.7-2-10.3-6.1-13.8c-4-3.5-11.1-6.7-21.3-9.8c-17.7-5.1-31-11.1-40.1-18.1     s-13.6-16.6-13.6-28.7s5.2-22.1,15.6-29.8c10.4-7.7,23.6-11.6,39.7-11.6c16.3,0,29.6,4.3,39.9,13c10.3,8.7,15.2,19.3,14.9,32.1     l-0.2,0.6h-28.8c0-6.9-2.3-12.4-6.9-16.7c-4.6-4.2-11-6.4-19.3-6.4c-8,0-14.1,1.8-18.5,5.3c-4.3,3.5-6.5,8.1-6.5,13.6     c0,5,2.3,9.2,7,12.4c4.7,3.2,12.7,6.6,24.1,10.2c16.4,4.6,28.8,10.6,37.2,18s12.6,17.3,12.6,29.5c0,12.7-5,22.7-15,30.1     c-10,7.3-23.3,11-39.7,11c-16.2,0-30.3-4.2-42.3-12.5c-12-8.3-17.9-20-17.5-35l0.2-0.6h29c0,8.8,2.7,15.3,8.1,19.4     c5.4,4.1,12.9,6.2,22.6,6.2c8.1,0,14.3-1.7,18.6-5C170.2,230.6,172.3,226.1,172.3,220.5z"/>
			<path fill="#000000" d="M336.7,208.7l0.2,0.6c0.3,16-4.6,28.6-14.6,38c-10,9.4-23.9,14.1-41.7,14.1c-17.9,0-32.4-5.7-43.5-17.2     s-16.7-26.3-16.7-44.3v-29.5c0-18,5.4-32.8,16.3-44.3s25-17.3,42.4-17.3c18.3,0,32.7,4.7,43,14.1c10.3,9.4,15.4,22.2,15.1,38.5     l-0.2,0.6h-29c0-9.8-2.3-17.3-7-22.5c-4.7-5.2-12-7.8-21.9-7.8c-8.9,0-16,3.6-21.2,10.8c-5.2,7.2-7.8,16.4-7.8,27.7v29.6     c0,11.3,2.8,20.6,8.3,27.9c5.5,7.2,12.9,10.8,22.3,10.8c9.3,0,16.2-2.5,20.6-7.5c4.4-5,6.7-12.4,6.7-22.3H336.7z"/>
			<path fill="#000000" d="M437.7,227.3h-52.1l-10.1,32h-30.1l51.1-148.4H427l50.9,148.4h-30.1L437.7,227.3z M392.9,203.9h37.4     L412,145.6h-0.6L392.9,203.9z"/>
			<path fill="#000000" d="M611.7,259.3H582l-59.9-101.4l-0.6,0.1v101.3h-29.8V110.9h29.8l59.9,101.3l0.6-0.1V110.9h29.7V259.3z"/>
		</g>
		<g>
			<path fill="#000000" d="M135.3,314.8l88.1,224.6h1.1l88.1-224.6h47.8v276.5h-37.4V481.9l3.8-112.4l-0.9-0.2l-89.6,222h-24.9     l-89.2-221.4l-0.9,0.2l3.6,111.8v109.4H87.5V314.8H135.3z"/>
			<path fill="#000000" d="M593.1,463.1H466.5v98.7h146v29.4H429.1V314.8h181.3v29.4H466.5v89.4h126.6V463.1z"/>
		</g>
	</g>
</g>
</svg>
</svg>

</svg>
